problem 1
p 0
attrib

attribute 9
a 1 34 Box1 1 0 0 1 0 0 0
local_cs
  b_origin
  x    0.00000000000000e+00 y    0.00000000000000e+00 z    0.00000000000000e+00
  b_new_x
  x    1.00000000000000e+00 y    0.00000000000000e+00 z    0.00000000000000e+00
  b_new_y
  x    0.00000000000000e+00 y    1.00000000000000e+00 z    0.00000000000000e+00
  b_type CARTESIAN
mu
v   1.00000000000000e+00 v   1.00000000000000e+00 v   1.00000000000000e+00
stacking none
v 0
cond
v   0.00000000000000e+00 v   0.00000000000000e+00 v   0.00000000000000e+00
current
v 0.00000000000000e+00 v 0.00000000000000e+00 v 0.00000000000000e+00
Hc
v   0.00000000000000e+00 x0 0 x1 0 x2 0
a 2 108 MHDPump 1 0 0 1 0 0 0
local_cs
  b_origin
  x    0.00000000000000e+00 y    0.00000000000000e+00 z    0.00000000000000e+00
  b_new_x
  x    1.00000000000000e+00 y    0.00000000000000e+00 z    0.00000000000000e+00
  b_new_y
  x    0.00000000000000e+00 y    1.00000000000000e+00 z    0.00000000000000e+00
  b_type CARTESIAN
mu
v   1.00000000000000e+00 v   1.00000000000000e+00 v   1.00000000000000e+00
stacking none
v 0
cond
v   0.00000000000000e+00 v   0.00000000000000e+00 v   0.00000000000000e+00
current
v 0.00000000000000e+00 v 0.00000000000000e+00 v 0.00000000000000e+00
Hc
v   0.00000000000000e+00 x0 0 x1 0 x2 0
a 3 329 barMagnet 1 0 2 1 0 0 0
local_cs
  b_origin
  x    0.00000000000000e+00 y    0.00000000000000e+00 z    0.00000000000000e+00
  b_new_x
  x    1.00000000000000e+00 y    0.00000000000000e+00 z    0.00000000000000e+00
  b_new_y
  x    0.00000000000000e+00 y    1.00000000000000e+00 z    0.00000000000000e+00
  b_type CARTESIAN
mu
v   1.09977854060000e+00 v   1.09977854060000e+00 v   1.09977854060000e+00
stacking none
v 0
cond
v   6.25000000000000e+05 v   6.25000000000000e+05 v   6.25000000000000e+05
current
v 0.00000000000000e+00 v 0.00000000000000e+00 v 0.00000000000000e+00
Hc
v  -9.71000000000000e+05 x0   0.00000000000000e+00 x1   0.00000000000000e+00 x2   1.00000000000000e+00
a 4 357 barMagnet_1 1 0 2 1 0 0 0
local_cs
  b_origin
  x    0.00000000000000e+00 y    0.00000000000000e+00 z    0.00000000000000e+00
  b_new_x
  x    1.00000000000000e+00 y    0.00000000000000e+00 z    0.00000000000000e+00
  b_new_y
  x    0.00000000000000e+00 y    1.00000000000000e+00 z    0.00000000000000e+00
  b_type CARTESIAN
mu
v   1.09977854060000e+00 v   1.09977854060000e+00 v   1.09977854060000e+00
stacking none
v 0
cond
v   6.25000000000000e+05 v   6.25000000000000e+05 v   6.25000000000000e+05
current
v 0.00000000000000e+00 v 0.00000000000000e+00 v 0.00000000000000e+00
Hc
v  -9.71000000000000e+05 x0   0.00000000000000e+00 x1   0.00000000000000e+00 x2   1.00000000000000e+00
a 5 385 copperElectrode 1 0 0 1 0 0 0
local_cs
  b_origin
  x    0.00000000000000e+00 y    0.00000000000000e+00 z    0.00000000000000e+00
  b_new_x
  x    1.00000000000000e+00 y    0.00000000000000e+00 z    0.00000000000000e+00
  b_new_y
  x    0.00000000000000e+00 y    1.00000000000000e+00 z    0.00000000000000e+00
  b_type CARTESIAN
mu
v   9.99991000000000e-01 v   9.99991000000000e-01 v   9.99991000000000e-01
stacking none
v 0
cond
v   5.80000000000000e+07 v   5.80000000000000e+07 v   5.80000000000000e+07
current
v 0.00000000000000e+00 v 0.00000000000000e+00 v 0.00000000000000e+00
Hc
v   0.00000000000000e+00 x0 0 x1 0 x2 0
a 6 440 barMagnet_2 1 0 2 1 0 0 0
local_cs
  b_origin
  x    0.00000000000000e+00 y    0.00000000000000e+00 z    0.00000000000000e+00
  b_new_x
  x    1.00000000000000e+00 y    0.00000000000000e+00 z    0.00000000000000e+00
  b_new_y
  x    0.00000000000000e+00 y    1.00000000000000e+00 z    0.00000000000000e+00
  b_type CARTESIAN
mu
v   1.09977854060000e+00 v   1.09977854060000e+00 v   1.09977854060000e+00
stacking none
v 0
cond
v   6.25000000000000e+05 v   6.25000000000000e+05 v   6.25000000000000e+05
current
v 0.00000000000000e+00 v 0.00000000000000e+00 v 0.00000000000000e+00
Hc
v  -9.71000000000000e+05 x0   0.00000000000000e+00 x1   0.00000000000000e+00 x2   1.00000000000000e+00
a 7 468 copperElectrode_1 1 0 0 1 0 0 0
local_cs
  b_origin
  x    0.00000000000000e+00 y    0.00000000000000e+00 z    0.00000000000000e+00
  b_new_x
  x    1.00000000000000e+00 y    0.00000000000000e+00 z    0.00000000000000e+00
  b_new_y
  x    0.00000000000000e+00 y    1.00000000000000e+00 z    0.00000000000000e+00
  b_type CARTESIAN
mu
v   9.99991000000000e-01 v   9.99991000000000e-01 v   9.99991000000000e-01
stacking none
v 0
cond
v   5.80000000000000e+07 v   5.80000000000000e+07 v   5.80000000000000e+07
current
v 0.00000000000000e+00 v 0.00000000000000e+00 v 0.00000000000000e+00
Hc
v   0.00000000000000e+00 x0 0 x1 0 x2 0
a 8 523 barMagnet_3 1 0 2 1 0 0 0
local_cs
  b_origin
  x    0.00000000000000e+00 y    0.00000000000000e+00 z    0.00000000000000e+00
  b_new_x
  x    1.00000000000000e+00 y    0.00000000000000e+00 z    0.00000000000000e+00
  b_new_y
  x    0.00000000000000e+00 y    1.00000000000000e+00 z    0.00000000000000e+00
  b_type CARTESIAN
mu
v   1.09977854060000e+00 v   1.09977854060000e+00 v   1.09977854060000e+00
stacking none
v 0
cond
v   6.25000000000000e+05 v   6.25000000000000e+05 v   6.25000000000000e+05
current
v 0.00000000000000e+00 v 0.00000000000000e+00 v 0.00000000000000e+00
Hc
v  -9.71000000000000e+05 x0   0.00000000000000e+00 x1   0.00000000000000e+00 x2   1.00000000000000e+00
a 9 0 background 0 0 0 1 0 0 0
local_cs
  b_origin
  x    0.00000000000000e+00 y    0.00000000000000e+00 z    0.00000000000000e+00
  b_new_x
  x    1.00000000000000e+00 y    0.00000000000000e+00 z    0.00000000000000e+00
  b_new_y
  x    0.00000000000000e+00 y    1.00000000000000e+00 z    0.00000000000000e+00
  b_type CARTESIAN
mu
v   1.00000000000000e+00 v   1.00000000000000e+00 v   1.00000000000000e+00
stacking none
v 0
cond
v   0.00000000000000e+00 v   0.00000000000000e+00 v   0.00000000000000e+00
current
v 0.00000000000000e+00 v 0.00000000000000e+00 v 0.00000000000000e+00
Hc
v   0.00000000000000e+00 x0 0 x1 0 x2 0
end_attribute

bound_types
bound_type 1
b_t 1 neuman neumann
nonTerminal
end_bound_type

bound_opers
bound_ops      1
b_op_init
end_bound_ops

end_bound_info

end_problem
